<?xml version="1.0" encoding="UTF-8" standalone="no"?>
<svg
   version="1.1"
   width="64.599998mm"
   height="60.889023mm"
   viewBox="0 0 64.600001 60.889021"
   id="svg3504"
   xmlns="http://www.w3.org/2000/svg"
   xmlns:svg="http://www.w3.org/2000/svg">
  <defs
     id="defs3504" />
  <title
     id="title1">SVG Image created as hexatana-Edge_Cuts.svg date 2024/10/02 14:29:41 </title>
  <desc
     id="desc1">Image generated by PCBNEW </desc>
  <path
     style="fill:none;stroke:#d0d2cd;stroke-width:0.1;stroke-linecap:round;stroke-linejoin:round;stroke-opacity:1"
     d="m 229.77574,77.512123 v 7.650501 a 4.1244741,4.1244741 60.000169 0 0 2.06222,3.571887 l 6.62556,3.825326 a 4.1244741,4.1244741 60.000169 0 1 2.06222,3.571887 l 0,7.650496 a 4.1244409,4.1244409 120.00003 0 1 -2.06222,3.57187 l -6.62556,3.82526 a 4.1244409,4.1244409 120.00003 0 0 -2.06222,3.57187 v 7.6505 a 4.1244741,4.1244741 119.99983 0 1 -2.06222,3.57189 l -6.62556,3.82532 a 4.1243898,4.1243898 0 0 1 -4.12444,0 l -6.62556,-3.82532 a 4.1243898,4.1243898 0 0 0 -4.12444,0 l -6.62556,3.82532 a 4.1243898,4.1243898 0 0 1 -4.12444,0 l -6.62556,-3.82532 a 4.1244741,4.1244741 60.000169 0 1 -2.06222,-3.57189 v -7.6505 a 4.1244409,4.1244409 59.999969 0 0 -2.06222,-3.57187 l -6.62556,-3.82526 a 4.1244409,4.1244409 59.999969 0 1 -2.06222,-3.57187 v -7.650496 a 4.1244741,4.1244741 119.99983 0 1 2.06222,-3.571887 l 6.62556,-3.825326 a 4.1244741,4.1244741 119.99983 0 0 2.06222,-3.571887 v -7.650501 a 4.1244409,4.1244409 120.00003 0 1 2.06222,-3.571873 l 6.62556,-3.825254 a 4.1244562,4.1244562 0 0 1 4.12444,0 l 6.62556,3.825254 a 4.1244562,4.1244562 0 0 0 4.12444,0 l 6.62556,-3.825254 a 4.1244562,4.1244562 0 0 1 4.12444,0 l 6.62556,3.825254 a 4.1244409,4.1244409 59.999969 0 1 2.06222,3.571873 z"
     id="path1753"
     transform="translate(-175.97574,-69.51246)" />
</svg>
