<?xml version="1.0" encoding="UTF-8" standalone="no"?>
<svg
   version="1.1"
   width="279.59998mm"
   height="98.128136mm"
   viewBox="0 0 279.59998 98.128135"
   id="svg1084"
   sodipodi:docname="pointy.svg"
   inkscape:version="1.3.2 (091e20ef0f, 2023-11-25, custom)"
   xmlns:inkscape="http://www.inkscape.org/namespaces/inkscape"
   xmlns:sodipodi="http://sodipodi.sourceforge.net/DTD/sodipodi-0.dtd"
   xmlns="http://www.w3.org/2000/svg"
   xmlns:svg="http://www.w3.org/2000/svg">
  <sodipodi:namedview
     id="namedview1"
     pagecolor="#ffffff"
     bordercolor="#666666"
     borderopacity="1.0"
     inkscape:showpageshadow="2"
     inkscape:pageopacity="0.0"
     inkscape:pagecheckerboard="0"
     inkscape:deskcolor="#d1d1d1"
     inkscape:document-units="mm"
     inkscape:zoom="0.75703384"
     inkscape:cx="528.37796"
     inkscape:cy="188.23465"
     inkscape:window-width="1920"
     inkscape:window-height="1064"
     inkscape:window-x="0"
     inkscape:window-y="0"
     inkscape:window-maximized="1"
     inkscape:current-layer="svg1084" />
  <defs
     id="defs1084">
    <inkscape:path-effect
       effect="fillet_chamfer"
       id="path-effect1"
       is_visible="true"
       lpeversion="1"
       nodesatellites_param="F,0,0,1,0,2.38125,0,1 @ F,0,0,1,0,2.38125,0,1 @ F,0,0,1,0,2.38125,0,1 @ F,0,0,1,0,2.38125,0,1 @ F,0,0,1,0,2.38125,0,1 @ F,0,0,1,0,2.38125,0,1 @ F,0,0,1,0,2.38125,0,1 @ F,0,0,1,0,2.38125,0,1 @ F,0,0,1,0,2.38125,0,1 @ F,0,0,1,0,2.38125,0,1 @ F,0,0,1,0,2.38125,0,1 @ F,0,0,1,0,2.38125,0,1 @ F,0,0,1,0,2.38125,0,1 @ F,0,0,1,0,2.38125,0,1 @ F,0,0,1,0,2.38125,0,1 @ F,0,0,1,0,2.38125,0,1 @ F,0,0,1,0,2.38125,0,1 @ F,0,0,1,0,2.38125,0,1 @ F,0,0,1,0,2.38125,0,1 @ F,0,0,1,0,2.38125,0,1 @ F,0,0,1,0,2.38125,0,1 @ F,0,0,1,0,2.38125,0,1 @ F,0,0,1,0,2.38125,0,1 @ F,0,0,1,0,2.38125,0,1 @ F,0,0,1,0,2.38125,0,1 @ F,0,0,1,0,2.38125,0,1 @ F,0,0,1,0,2.38125,0,1 @ F,0,0,1,0,2.38125,0,1 @ F,0,0,1,0,2.38125,0,1 @ F,0,0,1,0,2.38125,0,1 @ F,0,0,1,0,2.38125,0,1 @ F,0,0,1,0,2.38125,0,1 @ F,0,0,1,0,2.38125,0,1 @ F,0,0,1,0,2.38125,0,1 @ F,0,0,1,0,2.38125,0,1 @ F,0,0,1,0,2.38125,0,1 @ F,0,0,1,0,2.38125,0,1 @ F,0,0,1,0,2.38125,0,1 @ F,0,0,1,0,2.38125,0,1 @ F,0,0,1,0,2.38125,0,1 @ F,0,0,1,0,2.38125,0,1 @ F,0,0,1,0,2.38125,0,1 @ F,0,0,1,0,2.38125,0,1 @ F,0,0,1,0,2.38125,0,1 @ F,0,0,1,0,2.38125,0,1 @ F,0,0,1,0,2.38125,0,1 @ F,0,0,1,0,2.38125,0,1 @ F,0,0,1,0,2.38125,0,1 @ F,0,0,1,0,2.38125,0,1 @ F,0,0,1,0,2.38125,0,1 @ F,0,0,1,0,2.38125,0,1 @ F,0,0,1,0,2.38125,0,1 @ F,0,0,1,0,2.38125,0,1 @ F,0,0,1,0,2.38125,0,1 @ F,0,0,1,0,2.38125,0,1 @ F,0,0,1,0,2.38125,0,1 @ F,0,0,1,0,2.38125,0,1 @ F,0,0,1,0,2.38125,0,1 @ F,0,0,1,0,2.38125,0,1 @ F,0,0,1,0,2.38125,0,1 @ F,0,0,1,0,2.38125,0,1 @ F,0,0,1,0,2.38125,0,1"
       radius="9"
       unit="px"
       method="auto"
       mode="F"
       chamfer_steps="1"
       flexible="false"
       use_knot_distance="true"
       apply_no_radius="true"
       apply_with_radius="true"
       only_selected="false"
       hide_knots="false" />
  </defs>
  <title
     id="title1">SVG Image created as hexatana-Edge_Cuts.svg date 2024/01/03 21:50:26 </title>
  <desc
     id="desc1">Image generated by PCBNEW </desc>
  <path
     style="fill:none;fill-opacity:0;stroke:#000000;stroke-width:0.1;stroke-linecap:round;stroke-linejoin:round;stroke-opacity:1"
     d="m 258.05,8.637753 v 7.650597 a 4.1244409,4.1244409 59.999969 0 0 2.06222,3.571873 l 6.62556,3.825254 A 4.1244409,4.1244409 59.999969 0 1 268.8,27.25735 v 7.6505 a 4.1244409,4.1244409 59.999969 0 0 2.06222,3.571873 l 6.62556,3.825254 A 4.1244409,4.1244409 59.999969 0 1 279.55,45.87685 v 7.6506 a 4.1244409,4.1244409 120.00003 0 1 -2.06222,3.571873 l -6.62556,3.825254 a 4.1244562,4.1244562 0 0 1 -4.12444,0 l -6.62556,-3.825254 a 4.1244562,4.1244562 0 0 0 -4.12444,0 l -6.62556,3.825254 a 4.1244562,4.1244562 0 0 1 -4.12444,0 l -6.62556,-3.825254 a 4.1244562,4.1244562 0 0 0 -4.12444,0 l -6.62556,3.825254 a 4.1244562,4.1244562 0 0 1 -4.12444,0 l -6.62556,-3.825254 a 4.1244562,4.1244562 0 0 0 -4.12444,0 l -6.62556,3.825254 A 4.1244409,4.1244409 120.00003 0 0 204.3,64.49645 v 7.6505 a 4.1244409,4.1244409 120.00003 0 1 -2.06222,3.571873 l -6.62556,3.825254 a 4.1244562,4.1244562 0 0 1 -4.12444,0 l -6.62556,-3.825254 a 4.1244562,4.1244562 0 0 0 -4.12444,0 l -6.62556,3.825254 A 4.1244409,4.1244409 120.00003 0 0 172.05,83.11595 v 7.6506 a 4.1244409,4.1244409 120.00003 0 1 -2.06222,3.571873 l -6.62556,3.825254 a 4.1244562,4.1244562 0 0 1 -4.12444,0 l -6.62556,-3.825254 a 4.1244562,4.1244562 180 0 0 -4.12444,0 l -6.62556,3.825254 a 4.1244562,4.1244562 0 0 1 -4.12444,0 l -6.62556,-3.825254 a 4.1244562,4.1244562 0 0 0 -4.12444,0 l -6.62556,3.825254 a 4.1244562,4.1244562 0 0 1 -4.12444,0 l -6.62556,-3.825254 A 4.1244409,4.1244409 59.999969 0 1 107.55,90.76655 v -7.6506 a 4.1244409,4.1244409 59.999969 0 0 -2.06222,-3.571873 l -6.625556,-3.825254 a 4.1244562,4.1244562 0 0 0 -4.124448,0 l -6.625552,3.825254 a 4.1244562,4.1244562 0 0 1 -4.124448,0 L 77.362224,75.718823 A 4.1244409,4.1244409 59.999969 0 1 75.3,72.14695 v -7.6505 a 4.1244409,4.1244409 59.999969 0 0 -2.062224,-3.571873 l -6.625552,-3.825254 a 4.1244562,4.1244562 0 0 0 -4.124448,0 l -6.625552,3.825254 a 4.1244562,4.1244562 0 0 1 -4.124448,0 l -6.625552,-3.825254 a 4.1244562,4.1244562 0 0 0 -4.124448,0 l -6.625552,3.825254 a 4.1244562,4.1244562 0 0 1 -4.124448,0 l -6.625552,-3.825254 a 4.1244562,4.1244562 0 0 0 -4.124448,0 l -6.625552,3.825254 a 4.1244562,4.1244562 180 0 1 -4.1244483,0 L 2.1122241,57.099323 A 4.1244408,4.1244408 59.999969 0 1 0.04999984,53.52745 l 0,-7.6506 A 4.1244408,4.1244408 120.00003 0 1 2.1122241,42.304977 L 8.7377757,38.479723 A 4.1244408,4.1244408 120.00003 0 0 10.8,34.90785 v -7.6505 a 4.1244409,4.1244409 120.00003 0 1 2.062224,-3.571873 l 6.625552,-3.825254 A 4.1244409,4.1244409 120.00003 0 0 21.55,16.28835 V 8.637753 a 4.1244409,4.1244409 120.00003 0 1 2.062224,-3.5718728 l 6.625552,-3.8252544 a 4.1244562,4.1244562 0 0 1 4.124448,0 l 6.625552,3.8252544 a 4.1244562,4.1244562 0 0 0 4.124448,0 l 6.625552,-3.8252544 a 4.1244562,4.1244562 0 0 1 4.124448,0 l 6.625552,3.8252544 a 4.1244562,4.1244562 0 0 0 4.124448,0 l 6.625552,-3.8252544 a 4.1244562,4.1244562 0 0 1 4.124448,0 l 6.625552,3.8252544 a 4.1244562,4.1244562 0 0 0 4.124448,0 l 6.625552,-3.8252544 a 4.1244562,4.1244562 0 0 1 4.124448,0 l 6.625556,3.8252544 a 4.1244562,4.1244562 0 0 0 4.12444,0 l 6.62556,-3.8252544 a 4.1244562,4.1244562 0 0 1 4.12444,0 l 6.62556,3.8252544 10.75,6.2064978 a 4.1244582,4.1244582 0 0 0 4.12444,0 l 6.62556,-3.8252526 10.75,-6.2064996 a 4.1244562,4.1244562 0 0 1 4.12444,0 l 6.62556,3.8252544 a 4.1244562,4.1244562 0 0 0 4.12444,0 l 6.62556,-3.8252544 a 4.1244562,4.1244562 0 0 1 4.12444,0 l 6.62556,3.8252544 a 4.1244562,4.1244562 0 0 0 4.12444,0 l 6.62556,-3.8252544 a 4.1244562,4.1244562 0 0 1 4.12444,0 l 6.62556,3.8252544 a 4.1244562,4.1244562 0 0 0 4.12444,0 l 6.62556,-3.8252544 a 4.1244562,4.1244562 0 0 1 4.12444,0 l 6.62556,3.8252544 a 4.1244562,4.1244562 0 0 0 4.12444,0 l 6.62556,-3.8252544 a 4.1244562,4.1244562 0 0 1 4.12444,0 l 6.62556,3.8252544 A 4.1244409,4.1244409 59.999969 0 1 258.05,8.637753 Z"
     id="path1015"
     inkscape:path-effect="#path-effect1"
     inkscape:original-d="M 258.05,6.256503 V 18.6696 l 10.75,6.2065 v 12.413 l 10.75,6.2065 v 12.4131 l -10.75,6.2065 -10.75,-6.2065 -10.75,6.2065 -10.75,-6.2065 -10.75,6.2065 -10.75,-6.2065 -10.75,6.2065 v 12.413 l -10.75,6.2065 -10.75,-6.2065 -10.75,6.2065 V 93.1478 L 161.3,99.3543 150.55,93.1478 139.8,99.3543 129.05,93.1478 118.3,99.3543 107.55,93.1478 V 80.7347 L 96.8,74.5282 86.05,80.7347 75.3,74.5282 V 62.1152 L 64.55,55.9087 53.8,62.1152 43.05,55.9087 32.3,62.1152 21.55,55.9087 10.8,62.1152 0.04999984,55.9087 V 43.4956 L 10.8,37.2891 V 24.8761 L 21.55,18.6696 V 6.256503 L 32.3,0.05000304 43.05,6.256503 53.8,0.05000304 64.55,6.256503 75.3,0.05000304 86.05,6.256503 96.8,0.05000304 107.55,6.256503 118.3,0.05000304 129.05,6.256503 139.8,12.463 150.55,6.256503 161.3,0.05000304 172.05,6.256503 182.8,0.05000304 193.55,6.256503 204.3,0.05000304 215.05,6.256503 225.8,0.05000304 236.55,6.256503 247.3,0.05000304 Z"
     transform="translate(1.6074507e-7,-0.63808641)" />
</svg>
